<svg width="811" height="929" viewBox="0 0 811 929" fill="none" xmlns="http://www.w3.org/2000/svg">
<path fill-rule="evenodd" clip-rule="evenodd" d="M42.8542 490.244C34.4672 458.404 30 424.974 30 390.5C30 174.833 204.833 0 420.5 0C636.167 0 811 174.833 811 390.5C811 474.696 784.354 552.668 739.034 616.444C721.227 598.595 706.277 587.323 697.506 582.228C694.986 580.586 692.436 579.024 689.863 577.539C728.356 524.788 751 460.228 751 390.5C751 212.388 603.254 68 421 68C238.746 68 91 212.388 91 390.5C91 445.75 105.216 497.754 130.269 543.211C122.25 539.563 113.825 535.48 105.065 530.922C79.1974 517.464 58.3914 502.956 42.8542 490.244Z" fill="#083658"/>
<path d="M94.0653 554.922C41.858 527.76 10.2687 496.323 1 484C13.0306 534.538 38.9814 570.047 78.1761 613.018C111 649.003 172.327 667.587 204.155 671.114C249.553 677.753 316.893 669.856 344.888 665.078L453.275 649.234C548.61 638.369 620.868 651.246 645.08 659.042C707.275 677.15 774.275 717.892 800 736C755.964 659.344 705.989 617.545 686.506 606.228C629.758 569.257 558.257 573.03 532.721 572.275C512.292 571.672 449.681 580.575 420.929 585.102L313.109 597.174C266.804 602.606 218.531 597.425 200.183 594.156C186.563 592.395 146.273 582.084 94.0653 554.922Z" fill="#EE2F3E" stroke="#EE2F3E"/>
<path fill-rule="evenodd" clip-rule="evenodd" d="M666.162 567.111C703.153 517.774 725 456.884 725 391C725 226.419 588.671 93 420.5 93C252.329 93 116 226.419 116 391C116 453.788 135.842 512.041 169.725 560.081C189.487 566.94 204.022 570.23 211.183 571.156C229.531 574.425 277.804 579.606 324.109 574.174L431.929 562.102C460.681 557.575 523.292 548.672 543.721 549.275C546.469 549.357 549.751 549.385 553.489 549.418C578.301 549.636 623.24 550.03 666.162 567.111Z" fill="#81C9E0"/>
<path d="M95.8406 679.57C45.6913 660.462 14.3846 636.304 5 626.613C19.3975 668.195 45.7375 696.173 84.836 729.476C117.579 757.366 175.634 768.624 205.371 769.331C247.889 771.689 309.82 760.287 335.471 754.291L434.95 733.308C522.647 717.43 590.471 723.122 613.421 727.953C672.25 738.751 736.986 768.213 762 781.595C716.251 720.35 667.232 688.794 648.441 680.672C593.453 653.65 527.4 661.884 503.674 663.06C484.694 664 427.212 675.912 400.844 681.751L301.649 699.526C259.063 707.369 213.972 706.439 196.75 704.994C184.009 704.48 145.99 698.677 95.8406 679.57Z" fill="#ED8B42" stroke="#ED8B42"/>
<path d="M166.147 799.353C123.727 790.549 96.0263 775.76 87.4788 769.467C103.254 799.418 127.322 817.674 162.228 838.522C191.461 855.982 239.487 857.922 263.582 855.072C298.169 852.021 347.069 836.305 367.196 828.828L445.478 801.556C514.749 779.505 570.113 776.104 589.136 777.16C637.741 778.663 692.978 793.674 714.521 800.991C671.458 759.672 628.711 741.281 612.72 737.25C565.601 722.984 513.055 736.763 494.003 740.359C478.762 743.235 433.508 758.832 412.786 766.271L334.414 791.074C300.789 801.882 264.266 806.312 250.208 807.175C239.863 808.237 208.568 808.158 166.147 799.353Z" fill="#D2B406" stroke="#D2B406"/>
<path fill-rule="evenodd" clip-rule="evenodd" d="M591.399 550.99C575.525 546.342 556.857 540.341 548.741 535.996C543.639 533.264 541.443 527.983 539.051 522.232C534.556 511.423 529.37 498.954 502.903 498.633C470.463 498.24 448.249 476.182 441.196 465.203C432.969 454.06 400.412 436.001 336.002 452.912C272.695 469.535 170.516 472.004 125 471.15C134.156 503.314 148.686 533.286 167.585 560.081C187.347 566.94 201.882 570.23 209.043 571.156C227.391 574.425 275.664 579.606 321.969 574.174L429.789 562.102C458.541 557.575 521.152 548.672 541.581 549.275C544.329 549.357 547.611 549.385 551.349 549.418C561.721 549.509 575.61 549.631 591.399 550.99Z" fill="#F0D4BF"/>
<path d="M591.399 550.99L591.356 551.488L591.539 550.51L591.399 550.99ZM548.741 535.996L548.505 536.437L548.505 536.437L548.741 535.996ZM539.051 522.232L538.59 522.424L538.59 522.424L539.051 522.232ZM502.903 498.633L502.909 498.133L502.909 498.133L502.903 498.633ZM441.196 465.203L441.617 464.933L441.608 464.919L441.599 464.906L441.196 465.203ZM336.002 452.912L335.875 452.429L335.875 452.429L336.002 452.912ZM125 471.15L125.009 470.65L124.334 470.637L124.519 471.287L125 471.15ZM167.585 560.081L167.176 560.369L167.269 560.5L167.421 560.553L167.585 560.081ZM209.043 571.156L209.13 570.663L209.118 570.661L209.107 570.66L209.043 571.156ZM321.969 574.174L321.914 573.677L321.911 573.677L321.969 574.174ZM429.789 562.102L429.845 562.599L429.856 562.597L429.867 562.596L429.789 562.102ZM541.581 549.275L541.566 549.775L541.566 549.775L541.581 549.275ZM551.349 549.418L551.353 548.918L551.353 548.918L551.349 549.418ZM591.539 550.51C575.651 545.858 557.038 539.871 548.977 535.555L548.505 536.437C556.676 540.811 575.4 546.826 591.258 551.469L591.539 550.51ZM548.977 535.555C544.06 532.923 541.921 527.83 539.513 522.04L538.59 522.424C540.965 528.136 543.219 533.606 548.505 536.437L548.977 535.555ZM539.513 522.04C537.27 516.647 534.812 510.719 529.545 506.123C524.263 501.514 516.222 498.294 502.909 498.133L502.897 499.133C516.051 499.292 523.837 502.468 528.888 506.876C533.954 511.297 536.337 517.008 538.59 522.424L539.513 522.04ZM502.909 498.133C470.692 497.742 448.613 475.824 441.617 464.933L440.776 465.473C447.884 476.541 470.234 498.737 502.897 499.133L502.909 498.133ZM441.599 464.906C433.197 453.526 400.379 435.492 335.875 452.429L336.129 453.396C400.444 436.509 432.741 454.593 440.794 465.5L441.599 464.906ZM335.875 452.429C272.64 469.032 170.522 471.504 125.009 470.65L124.991 471.65C170.51 472.504 272.749 470.037 336.129 453.396L335.875 452.429ZM124.519 471.287C133.691 503.506 148.246 533.529 167.176 560.369L167.993 559.792C149.126 533.043 134.621 503.122 125.481 471.013L124.519 471.287ZM167.421 560.553C187.202 567.419 201.772 570.72 208.978 571.652L209.107 570.66C201.992 569.74 187.493 566.462 167.749 559.608L167.421 560.553ZM208.955 571.648C227.336 574.923 275.66 580.11 322.028 574.67L321.911 573.677C275.667 579.102 227.445 573.927 209.13 570.663L208.955 571.648ZM322.025 574.671L429.845 562.599L429.733 561.605L321.914 573.677L322.025 574.671ZM429.867 562.596C444.239 560.333 467.074 556.976 488.868 554.261C510.678 551.543 531.397 549.475 541.566 549.775L541.596 548.776C531.335 548.473 510.535 550.554 488.744 553.269C466.937 555.985 444.091 559.344 429.711 561.608L429.867 562.596ZM541.566 549.775C544.321 549.857 547.608 549.885 551.344 549.918L551.353 548.918C547.613 548.885 544.338 548.857 541.596 548.776L541.566 549.775ZM551.344 549.918C561.716 550.009 575.588 550.131 591.356 551.488L591.442 550.491C575.632 549.131 561.725 549.009 551.353 548.918L551.344 549.918Z" fill="#F0D4BF"/>
<path fill-rule="evenodd" clip-rule="evenodd" d="M665.158 569.734C687.012 540.587 703.579 507.408 713.48 471.549C704.459 474.208 688.848 477.585 663.434 481.031C619.059 487.05 564.572 483.539 542.875 481.031C548.346 477.807 556.006 471.789 542.875 473.508C530.131 475.177 513.976 471.016 504.474 468.568C501.737 467.863 499.553 467.301 498.16 467.06C493.18 466.2 496.085 462.045 498.16 460.075C492.123 459.716 480.501 457.818 482.312 453.089C483.353 450.373 495.746 448.678 509.058 446.857C524.718 444.716 541.651 442.4 542.875 438.043C544.686 431.595 488.161 435.356 459.672 438.043L313.643 453.089C298.55 455.776 275.268 458.14 302.889 446.103C330.51 434.067 309.87 433.565 296.097 434.819L229.309 438.043C211.385 438.401 174.52 436.968 170.444 428.371C167.287 421.71 139.017 418.919 116 418C117.585 437.161 121.022 455.809 126.136 473.773C171.652 474.627 273.831 472.158 337.138 455.536C401.548 438.624 434.105 456.683 442.332 467.826C449.384 478.806 471.599 500.863 504.039 501.256C530.506 501.577 535.692 514.046 540.187 524.856C542.579 530.607 544.775 535.888 549.877 538.62C557.993 542.964 576.661 548.966 592.535 553.613C614.516 555.505 640.179 559.793 665.158 569.734Z" fill="#D9D9D9"/>
<path d="M713.48 471.549L713.962 471.682L714.201 470.815L713.338 471.069L713.48 471.549ZM665.158 569.734L664.973 570.199L665.329 570.34L665.558 570.034L665.158 569.734ZM663.434 481.031L663.501 481.527L663.501 481.527L663.434 481.031ZM542.875 481.031L542.621 480.601L541.337 481.357L542.817 481.528L542.875 481.031ZM542.875 473.508L542.81 473.013L542.81 473.013L542.875 473.508ZM504.474 468.568L504.599 468.084L504.599 468.084L504.474 468.568ZM498.16 467.06L498.075 467.553L498.075 467.553L498.16 467.06ZM498.16 460.075L498.505 460.437L499.34 459.644L498.19 459.575L498.16 460.075ZM482.312 453.089L482.779 453.268L482.779 453.268L482.312 453.089ZM509.058 446.857L509.126 447.353L509.126 447.353L509.058 446.857ZM542.875 438.043L542.393 437.908L542.393 437.908L542.875 438.043ZM459.672 438.043L459.625 437.545L459.621 437.546L459.672 438.043ZM313.643 453.089L313.592 452.592L313.574 452.593L313.556 452.597L313.643 453.089ZM296.097 434.819L296.121 435.318L296.132 435.318L296.142 435.317L296.097 434.819ZM229.309 438.043L229.319 438.543L229.333 438.542L229.309 438.043ZM170.444 428.371L169.993 428.585L169.993 428.585L170.444 428.371ZM116 418L116.02 417.5L115.455 417.478L115.502 418.041L116 418ZM126.136 473.773L125.655 473.91L125.756 474.266L126.127 474.273L126.136 473.773ZM337.138 455.536L337.011 455.052L337.011 455.052L337.138 455.536ZM442.332 467.826L442.753 467.556L442.744 467.542L442.735 467.529L442.332 467.826ZM504.039 501.256L504.045 500.756L504.045 500.756L504.039 501.256ZM540.187 524.856L539.725 525.048L539.725 525.048L540.187 524.856ZM549.877 538.62L549.641 539.06L549.641 539.06L549.877 538.62ZM592.535 553.613L592.394 554.093L592.442 554.107L592.492 554.111L592.535 553.613ZM712.998 471.415C703.115 507.213 686.575 540.336 664.758 569.434L665.558 570.034C687.448 540.838 704.044 507.603 713.962 471.682L712.998 471.415ZM663.501 481.527C688.927 478.078 704.567 474.698 713.621 472.028L713.338 471.069C704.352 473.719 688.768 477.091 663.366 480.536L663.501 481.527ZM542.817 481.528C564.533 484.038 619.067 487.553 663.501 481.527L663.366 480.536C619.051 486.546 564.61 483.04 542.932 480.535L542.817 481.528ZM542.94 474.004C544.568 473.791 545.86 473.7 546.866 473.706C547.879 473.712 548.571 473.817 549.016 473.976C549.458 474.134 549.576 474.313 549.608 474.425C549.648 474.558 549.629 474.793 549.416 475.17C548.99 475.921 548.003 476.87 546.724 477.858C545.462 478.833 543.976 479.802 542.621 480.601L543.129 481.462C544.509 480.649 546.032 479.657 547.335 478.65C548.621 477.656 549.754 476.603 550.286 475.662C550.552 475.192 550.72 474.658 550.567 474.141C550.408 473.602 549.952 473.249 549.352 473.034C548.754 472.82 547.932 472.712 546.872 472.706C545.805 472.699 544.465 472.796 542.81 473.013L542.94 474.004ZM504.349 469.052C513.826 471.494 530.081 475.688 542.94 474.004L542.81 473.013C530.181 474.667 514.126 470.538 504.599 468.084L504.349 469.052ZM498.075 467.553C499.442 467.789 501.602 468.345 504.349 469.052L504.599 468.084C501.873 467.382 499.663 466.812 498.246 466.568L498.075 467.553ZM497.816 459.712C496.762 460.713 495.43 462.325 495.031 463.858C494.826 464.642 494.85 465.475 495.364 466.178C495.868 466.868 496.769 467.327 498.075 467.553L498.246 466.568C497.061 466.363 496.458 465.98 496.171 465.588C495.894 465.209 495.84 464.718 495.998 464.11C496.325 462.857 497.484 461.406 498.505 460.437L497.816 459.712ZM481.845 452.91C481.583 453.596 481.556 454.258 481.748 454.88C481.938 455.493 482.329 456.029 482.838 456.494C483.848 457.416 485.402 458.135 487.139 458.696C490.63 459.825 495.092 460.393 498.131 460.574L498.19 459.575C495.192 459.398 490.824 458.837 487.447 457.745C485.751 457.196 484.362 456.531 483.513 455.756C483.093 455.373 482.826 454.981 482.703 454.584C482.583 454.196 482.589 453.764 482.779 453.268L481.845 452.91ZM508.991 446.362C502.34 447.271 495.895 448.153 490.984 449.147C488.53 449.644 486.436 450.174 484.882 450.757C484.106 451.049 483.446 451.361 482.937 451.7C482.436 452.034 482.029 452.43 481.845 452.91L482.779 453.268C482.855 453.069 483.064 452.818 483.492 452.532C483.912 452.252 484.494 451.971 485.234 451.694C486.712 451.138 488.744 450.621 491.182 450.127C496.056 449.14 502.464 448.264 509.126 447.353L508.991 446.362ZM542.393 437.908C542.28 438.313 541.968 438.744 541.402 439.193C540.839 439.64 540.059 440.076 539.079 440.498C537.119 441.342 534.435 442.099 531.273 442.792C524.953 444.178 516.827 445.29 508.991 446.362L509.126 447.353C516.949 446.283 525.12 445.166 531.487 443.769C534.669 443.071 537.426 442.298 539.475 441.416C540.499 440.975 541.365 440.499 542.023 439.976C542.679 439.456 543.164 438.862 543.356 438.178L542.393 437.908ZM459.719 438.541C473.958 437.198 495.199 435.587 512.649 435.117C521.378 434.882 529.14 434.933 534.598 435.443C537.335 435.698 539.454 436.065 540.82 436.552C541.508 436.798 541.953 437.055 542.196 437.302C542.413 437.523 542.45 437.706 542.393 437.908L543.356 438.178C543.526 437.574 543.333 437.031 542.908 436.6C542.508 436.194 541.896 435.874 541.156 435.61C539.667 435.08 537.444 434.704 534.691 434.447C529.17 433.932 521.36 433.882 512.623 434.118C495.141 434.588 473.875 436.201 459.625 437.545L459.719 438.541ZM313.695 453.586L459.723 438.54L459.621 437.546L313.592 452.592L313.695 453.586ZM302.689 445.645C299.229 447.153 296.557 448.439 294.562 449.531C292.576 450.618 291.229 451.529 290.445 452.293C290.056 452.673 289.769 453.051 289.633 453.43C289.488 453.836 289.518 454.246 289.764 454.598C289.988 454.918 290.349 455.13 290.74 455.279C291.14 455.43 291.629 455.538 292.181 455.613C294.375 455.911 297.891 455.732 301.764 455.321C305.652 454.908 309.95 454.254 313.731 453.581L313.556 452.597C309.79 453.267 305.517 453.917 301.658 454.326C297.784 454.738 294.376 454.902 292.316 454.622C291.804 454.553 291.397 454.458 291.095 454.344C290.785 454.226 290.641 454.107 290.584 454.025C290.549 453.975 290.523 453.912 290.575 453.767C290.636 453.595 290.8 453.343 291.143 453.009C291.826 452.343 293.074 451.485 295.042 450.408C297.001 449.336 299.644 448.063 303.089 446.562L302.689 445.645ZM296.142 435.317C299.574 435.004 303.427 434.802 306.844 434.86C310.288 434.919 313.205 435.243 314.818 435.936C315.637 436.288 315.959 436.664 316.017 436.998C316.076 437.339 315.906 437.897 315.065 438.731C313.406 440.377 309.599 442.634 302.689 445.645L303.089 446.562C309.99 443.554 313.961 441.235 315.769 439.441C316.663 438.555 317.149 437.677 317.002 436.828C316.854 435.971 316.109 435.403 315.213 435.018C313.398 434.238 310.298 433.919 306.862 433.86C303.398 433.801 299.507 434.006 296.052 434.321L296.142 435.317ZM229.333 438.542L296.121 435.318L296.073 434.319L229.285 437.544L229.333 438.542ZM169.993 428.585C170.561 429.785 171.677 430.812 173.151 431.698C174.631 432.587 176.517 433.361 178.692 434.037C183.045 435.388 188.63 436.366 194.626 437.062C206.622 438.454 220.343 438.722 229.319 438.543L229.299 437.543C220.351 437.722 206.678 437.453 194.741 436.069C188.77 435.376 183.255 434.406 178.989 433.082C176.855 432.42 175.052 431.674 173.666 430.841C172.275 430.004 171.346 429.106 170.896 428.156L169.993 428.585ZM115.98 418.5C127.481 418.959 140.28 419.886 150.591 421.526C155.749 422.347 160.264 423.343 163.677 424.541C165.383 425.141 166.797 425.784 167.873 426.472C168.955 427.163 169.655 427.872 169.993 428.585L170.896 428.156C170.445 427.204 169.571 426.369 168.412 425.629C167.248 424.885 165.755 424.211 164.008 423.598C160.513 422.371 155.93 421.363 150.748 420.539C140.381 418.889 127.536 417.96 116.02 417.5L115.98 418.5ZM126.617 473.636C121.512 455.703 118.081 437.087 116.498 417.959L115.502 418.041C117.089 437.234 120.532 455.915 125.655 473.91L126.617 473.636ZM337.011 455.052C273.776 471.656 171.658 474.127 126.145 473.273L126.127 474.273C171.646 475.127 273.885 472.661 337.265 456.019L337.011 455.052ZM442.735 467.529C434.332 456.149 401.515 438.116 337.011 455.052L337.265 456.019C401.58 439.133 433.877 457.216 441.93 468.123L442.735 467.529ZM504.045 500.756C471.828 500.366 449.749 478.448 442.753 467.556L441.912 468.097C449.02 479.164 471.37 501.36 504.032 501.756L504.045 500.756ZM540.649 524.664C538.406 519.271 535.948 513.342 530.681 508.746C525.399 504.137 517.358 500.918 504.045 500.756L504.032 501.756C517.187 501.916 524.972 505.092 530.024 509.5C535.09 513.921 537.473 519.631 539.725 525.048L540.649 524.664ZM550.113 538.179C545.196 535.546 543.057 530.454 540.649 524.664L539.725 525.048C542.101 530.76 544.354 536.23 549.641 539.06L550.113 538.179ZM592.675 553.133C576.787 548.481 558.174 542.494 550.113 538.179L549.641 539.06C557.812 543.435 576.536 549.45 592.394 554.093L592.675 553.133ZM665.343 569.27C640.303 559.305 614.587 555.009 592.578 553.115L592.492 554.111C614.445 556 640.055 560.282 664.973 570.199L665.343 569.27Z" fill="#CACBCD"/>
<path fill-rule="evenodd" clip-rule="evenodd" d="M725 391C725 456.884 703.153 517.774 666.162 567.111C623.24 550.03 578.301 549.636 553.489 549.418C549.751 549.385 546.469 549.357 543.721 549.275C523.292 548.672 460.681 557.575 431.929 562.102L324.109 574.174C277.804 579.606 229.531 574.425 211.183 571.156C204.022 570.23 189.487 566.94 169.725 560.081C135.842 512.041 116 453.788 116 391C116 347.142 125.681 305.497 143.066 268L697.934 268C715.319 305.497 725 347.142 725 391Z" fill="url(#paint0_linear_7_208)"/>
<path d="M431.601 241C440.246 241 462.703 238.955 472.85 237.932C474.555 233.758 461.282 233.124 454.433 233.329C456.868 230.567 451.541 216.606 438.907 219.214C428.8 221.3 430.941 226.629 433.275 229.033C431.663 227.872 426.657 227.809 423.973 227.936C425.764 227.799 428.548 227.118 428.1 225.197C427.613 223.111 425.36 222.692 424.295 222.743C425.715 220.186 426.882 214.366 420.185 211.543C413.488 208.72 407.754 210.98 405.725 212.463C404.751 207.063 398.824 209.599 395.983 211.543L397.658 207.554C402.65 203.626 399.738 202.133 397.658 201.877C400.093 198.44 400.296 195.638 400.093 194.666C400.702 185.706 389.895 185.103 384.415 185.921C383.197 181.871 379.24 181.983 377.413 182.546C383.502 180.582 385.024 175.488 385.024 173.187C384.902 167.173 380.914 165.874 378.936 165.976C378.083 153.579 369.651 154.162 365.541 156.004C362.74 153.549 356.763 153.856 354.125 154.316C338.66 156.771 341.593 166.692 344.992 171.346C337.564 171.96 338.447 178.352 339.817 181.472C336.408 181.226 334.236 184.643 333.576 186.381C330.776 182.822 327.234 183.978 325.814 185C319.36 176.654 310.542 182.443 306.939 186.381C300.242 194.237 304.149 200.803 306.939 203.104C301.216 206.664 303.337 213.588 305.113 216.606C302.069 216.36 300.902 219.777 300.699 221.515C295.463 204.209 287.659 210.008 284.412 215.071C279.663 211.757 276.649 216.452 275.736 219.214C271.718 219.582 271.017 222.64 271.17 224.123C269.465 224.001 267.212 225.811 266.299 226.732C248.521 213.23 244.685 221.106 244.989 226.732C235.856 224.522 230.529 230.414 229.007 233.636L201 236.244L305.113 237.932L359.3 241H431.601Z" fill="url(#paint1_linear_7_208)"/>
<path fill-rule="evenodd" clip-rule="evenodd" d="M693.67 259.19C693.65 260.556 694.5 261.884 695.495 262.869C694.895 261.638 694.286 260.412 693.67 259.19ZM695.621 263.13C693.419 262.168 687.963 262.119 684.96 262.236C687.08 262.103 690.377 261.437 689.846 259.561C689.27 257.522 686.603 257.113 685.341 257.162C687.023 254.664 688.405 248.978 680.476 246.22C672.548 243.462 665.761 245.67 663.358 247.119C662.205 241.843 655.189 244.321 651.826 246.22L653.808 242.323C659.718 238.485 656.27 237.026 653.808 236.776C656.691 233.419 656.931 230.681 656.691 229.731C657.412 220.977 644.618 220.388 638.131 221.187C636.69 217.23 632.005 217.34 629.842 217.89C637.05 215.971 638.852 210.994 638.852 208.746C638.708 202.87 633.987 201.601 631.644 201.701C630.635 189.589 620.653 190.159 615.787 191.957C612.472 189.559 605.396 189.859 602.273 190.309C583.966 192.707 587.437 202.4 591.462 206.947C582.668 207.547 583.713 213.792 585.335 216.84C581.299 216.6 578.728 219.938 577.947 221.637C574.632 218.159 570.439 219.289 568.757 220.288C561.117 212.134 550.678 217.79 546.414 221.637C538.485 229.312 543.11 235.727 546.414 237.976C539.638 241.453 542.149 248.219 544.251 251.167C540.647 250.927 539.266 254.265 539.026 255.963C532.827 239.055 523.589 244.721 519.745 249.667C514.123 246.43 510.555 251.017 509.474 253.715C504.717 254.074 503.888 257.063 504.068 258.511C502.05 258.391 499.383 260.16 498.302 261.06C477.256 247.869 472.715 255.563 473.075 261.06C462.264 258.901 455.957 264.657 454.155 267.805L421 270.353L544.251 272.002L608.4 275H693.991C695.848 275 698.243 274.934 700.991 274.821C699.285 270.88 697.494 266.982 695.621 263.13Z" fill="#E0E0E2"/>
<path fill-rule="evenodd" clip-rule="evenodd" d="M141 272.074C154.149 273.359 172.984 275 181.186 275H265.714L329.065 271.261L450.785 269.205L418.042 266.027C416.262 262.102 410.034 254.924 399.357 257.616C399.713 250.762 395.228 241.166 374.443 257.616C373.375 256.494 370.742 254.288 368.749 254.438C368.927 252.631 368.108 248.905 363.41 248.456C362.342 245.091 358.819 239.371 353.267 243.409C349.47 237.24 340.347 230.174 334.226 251.26C333.988 249.142 332.624 244.979 329.065 245.278C331.141 241.602 333.621 233.165 326.93 228.828C330.192 226.024 334.76 218.024 326.93 208.453C322.718 203.655 312.409 196.602 304.863 206.771C303.202 205.525 299.062 204.116 295.788 208.453C295.016 206.335 292.478 202.172 288.492 202.471C290.093 198.67 291.125 190.882 282.441 190.134C286.416 184.464 289.844 172.376 271.764 169.385C268.679 168.824 261.692 168.45 258.417 171.441C253.613 169.198 243.754 168.488 242.758 183.591C240.444 183.467 235.782 185.05 235.639 192.377C235.639 195.181 237.419 201.387 244.537 203.78C242.402 203.094 237.775 202.957 236.351 207.892C229.945 206.896 217.31 207.631 218.022 218.547C217.785 219.731 218.022 223.146 220.869 227.333C218.437 227.645 215.032 229.464 220.869 234.249L222.827 239.109C219.505 236.742 212.577 233.651 211.438 240.231C209.065 238.424 202.362 235.67 194.532 239.109C186.702 242.549 188.066 249.64 189.727 252.755C188.482 252.693 185.848 253.204 185.279 255.746C184.754 258.087 188.01 258.917 190.104 259.083C186.965 258.929 181.113 259.006 179.228 260.419C181.957 257.491 184.46 250.998 172.644 248.456C157.874 245.278 151.645 262.289 154.493 265.654C151.535 265.562 147.552 265.609 143.806 265.962C142.848 267.987 141.913 270.025 141 272.074Z" fill="#E0E0E2"/>
<path d="M428.399 261C419.754 261 397.297 258.955 387.15 257.932C385.445 253.758 398.718 253.124 405.567 253.329C403.132 250.567 408.459 236.606 421.093 239.214C431.2 241.3 429.059 246.629 426.725 249.033C428.337 247.872 433.343 247.809 436.027 247.936C434.236 247.799 431.452 247.118 431.9 245.197C432.387 243.111 434.64 242.692 435.705 242.743C434.285 240.186 433.118 234.366 439.815 231.543C446.512 228.72 452.246 230.98 454.275 232.463C455.249 227.063 461.176 229.599 464.017 231.543L462.342 227.554C457.35 223.626 460.262 222.133 462.342 221.877C459.907 218.44 459.704 215.638 459.907 214.666C459.298 205.706 470.105 205.103 475.585 205.921C476.803 201.871 480.76 201.983 482.587 202.546C476.498 200.582 474.976 195.488 474.976 193.187C475.098 187.173 479.086 185.874 481.064 185.976C481.917 173.579 490.349 174.162 494.459 176.004C497.26 173.549 503.237 173.856 505.875 174.316C521.34 176.771 518.407 186.692 515.008 191.346C522.436 191.96 521.553 198.352 520.183 201.472C523.592 201.226 525.764 204.643 526.424 206.381C529.224 202.822 532.766 203.978 534.186 205C540.64 196.654 549.458 202.443 553.061 206.381C559.758 214.237 555.851 220.803 553.061 223.104C558.784 226.664 556.663 233.588 554.887 236.606C557.931 236.36 559.098 239.777 559.301 241.515C564.537 224.209 572.341 230.008 575.588 235.071C580.337 231.757 583.351 236.452 584.264 239.214C588.282 239.582 588.983 242.64 588.83 244.123C590.535 244.001 592.788 245.811 593.701 246.732C611.479 233.23 615.315 241.106 615.011 246.732C624.144 244.522 629.471 250.414 630.993 253.636L659 256.244L554.887 257.932L500.7 261H428.399Z" fill="url(#paint2_linear_7_208)"/>
<path fill-rule="evenodd" clip-rule="evenodd" d="M362.415 569.885C363.139 569.104 363.939 568.108 364.764 566.863C367.185 567.025 373.189 567.107 377.837 566.132C379.192 565.888 382.601 565.547 385.39 566.132C373.673 558.088 344.544 546.145 321.768 562.719H318.572C319.734 561.745 323.743 559.21 330.483 556.87C337.223 554.53 340.264 552.645 340.942 551.995C338.789 551.995 333.526 552.405 329.189 554.016C336.12 551.348 349.644 545.912 351.691 544.195L342.104 544.926C347.236 543.708 358.547 540.49 362.73 537.37C360.599 537.289 355.061 537.468 349.948 538.833C353.143 536.721 359.534 532.252 359.534 531.277C356.339 531.683 347.914 534.446 339.78 542.245C341.329 540.214 344.195 535.762 343.266 534.202C341.523 535.095 336.816 538.492 331.936 544.926C332.614 543.464 334.086 539.613 334.55 535.908C333.485 536.396 329.205 540.734 320.606 554.189C321.574 552.076 323.453 547.413 323.22 545.658C322.639 545.414 320.664 546.34 317.41 551.995C317.507 540.377 318.979 511.924 324.092 491.06C324.723 488.485 325.359 485.86 326.008 483.188C331.925 458.793 338.804 430.436 351.11 399.901C362.033 372.797 376.578 338.235 382.485 324.341C393.234 301.836 415.952 255.07 420.833 248.051C422.769 248.7 428.037 249.806 433.615 249.026C433.809 251.382 432.976 258.044 428.095 265.844C429.548 265.925 432.918 265.307 434.777 262.188C434.584 264.3 432.976 270.231 428.095 277.056C429.16 277.381 431.756 277.299 433.615 274.375C433.422 276.324 431.523 281.882 425.481 288.511C426.643 288.511 429.722 287.927 432.744 285.587C432.453 286.724 430.884 289.974 426.933 293.874C427.805 293.955 430.187 293.728 432.744 292.168C431.775 293.955 428.328 299.139 422.285 305.573C424.512 305.655 429.432 305.281 431.291 303.136C430.129 307.686 424.726 317.955 412.408 322.635C416.572 323.366 426.643 322.83 433.615 314.835C433.906 316.298 432.279 321.514 423.447 330.679C425.771 329.947 431.698 326.925 436.811 320.685C437.101 321.823 435.765 326.34 428.095 335.31C429.741 334.822 433.731 333.116 436.52 330.191C435.552 332.629 432.802 338.137 429.548 340.672C432.841 339.859 440.297 334.871 443.783 321.416C444.655 322.554 445.526 327.9 442.04 340.184C444.461 336.934 448.954 328.875 447.56 322.635C449.109 325.398 451.569 333.506 449.012 343.841C454.823 332.954 463.48 301.089 451.627 260.725C451.821 261.05 453.021 260.433 456.275 255.363C457.34 256.256 458.541 260.238 454.823 269.012C457.34 267.55 462.841 262.968 464.7 256.338C464.99 260.4 464.003 271.06 457.728 281.199C461.602 277.787 469.987 269.207 472.544 262.188C473.609 264.544 474.635 272.522 470.22 285.587C472.737 283.637 478.819 276.471 483.002 263.406C483.971 265.925 484.339 274.277 478.064 287.537C480 286.724 484.455 283.49 486.779 277.056C487.36 279.006 487.709 284.612 484.455 291.436C485.907 290.949 489.335 289.096 491.427 285.587C491.815 289.08 492.125 297.286 490.265 302.161C491.815 301.348 495.146 298.797 496.075 295.092C496.366 298.343 495.436 307.523 489.394 318.248C490.943 316.948 494.855 313.129 498.109 308.254C498.206 310.53 497.005 316.59 491.427 322.635C494.526 322.066 502.641 316.834 510.311 300.455C510.504 301.348 510.311 304.891 507.987 311.911C512.441 309.961 519.723 301.479 513.216 283.149C515.54 285.181 521.176 291.339 525.127 299.724C525.894 296.435 524.637 287.426 514.829 275.35C517.003 272.668 520.246 264.527 515.83 253.413C517.67 254.713 522.105 259.019 525.127 265.844C525.417 263.081 524.72 255.655 519.607 248.051C521.931 249.188 526.986 252.243 528.613 255.363C529 251.219 527.335 241.713 517.573 236.839C518.929 236.189 523.616 236.254 531.518 241.713C531.324 239.601 528.787 234.547 520.188 231.232L528.613 230.014L512.344 226.601L522.512 223.92C529.291 227.251 542.035 236.595 538.781 247.319C540.814 246.426 544.475 242.64 542.848 234.645C544.01 234.97 546.799 236.449 548.658 239.763C548.852 238.382 548.426 234.937 545.172 232.207C549.53 232.776 558.071 236.595 557.374 247.319C559.795 244.557 562.951 237.57 556.212 231.72C558.536 232.289 564.346 235.181 568.994 242.201C569.382 239.763 569.285 234.06 565.799 230.745C568.316 231.558 574.281 234.401 578 239.276C577.709 236.432 574.107 229.478 562.022 224.408C565.024 224.489 572.422 225.87 578 230.745C575.967 226.114 566.902 215.633 546.915 210.758C549.917 210.271 558.768 210.758 570.156 216.608C567.348 212.871 557.141 205.006 538.781 203.446C539.362 202.309 544.126 200.521 558.536 202.471C548.368 198.977 522.745 193.94 501.595 201.74C501.685 201.707 501.899 201.598 502.228 201.43C504.031 200.508 509.286 197.821 516.411 196.378C510.989 196.865 498.051 198.62 489.684 201.74C488.91 200.927 486.663 199.01 483.874 197.84C485.52 197.353 490.149 196.816 495.494 198.571C495.979 197.921 495.959 196.134 492.008 194.184C493.654 194.227 497.47 194.727 499.562 196.378C499.465 195.24 497.819 192.575 492.008 191.015C494.526 190.609 501.014 190.82 506.824 194.915C506.146 193.047 503.512 188.773 498.4 186.628C500.433 186.141 506.069 185.848 512.344 188.578C510.795 186.303 506.302 181.558 500.724 180.778C502.854 179.478 508.045 178.048 511.763 182.728C512.635 182.159 513.855 179.657 511.763 174.197C513.603 174.928 517.109 177.853 516.411 183.703C518.833 181.916 523.267 176.391 521.641 168.591C523.19 169.322 526.231 172.296 525.998 178.341C526.967 177.691 528.555 175.026 527.16 169.566C529.872 169.891 536.341 171.565 540.524 175.66C540.427 173.791 538.374 169.517 530.937 167.372C534.714 166.966 542.906 166.203 545.463 166.398C542.751 165.423 536.515 163.521 533.261 163.716C538.49 161.36 549.82 156.648 553.306 156.648C549.917 156.567 540.582 157.33 530.356 161.035C532.39 158.923 536.805 154.649 538.2 154.454C536.36 154.373 530.937 155.039 523.965 158.354C524.933 156.973 528.729 153.089 536.166 148.604C530.453 149.986 516.237 155.478 505.081 166.398C507.599 162.904 513.855 154.942 518.735 151.042C514.619 152.011 502.101 159.099 480.097 178.734C478.087 180.528 475.998 182.426 473.829 184.434C472.238 184.191 469.058 183.508 469.058 182.728C469.058 181.758 478.552 178.67 480.075 178.733C477.548 178.597 472.074 177.651 470.22 174.928C470.6 174.928 470.98 174.694 471.528 174.358C473.071 173.409 475.94 171.644 483.874 172.004C481.066 170.541 475.449 167.226 475.449 165.666C475.655 165.666 476.167 165.571 476.932 165.43C479.415 164.97 484.561 164.018 490.556 164.204L485.036 161.035C487.553 160.954 492.88 160.645 494.042 160.06C491.815 159.004 487.418 156.648 487.651 155.673C491.621 155.511 500.201 154.893 502.757 153.723C498.593 152.586 489.742 149.726 487.651 147.386C491.621 147.223 500.317 146.46 503.338 144.705C501.692 144.461 498.458 143.632 498.69 142.267C500.821 142.349 505.662 142.17 507.987 140.805L502.757 137.392C505.372 137.067 511.531 136.515 515.249 136.905C512.441 135.768 505.837 133.395 501.886 133.005C506.243 132.518 516.005 131.64 520.188 132.03C518.929 130.811 514.378 128.52 506.243 129.105C511.182 126.587 523.209 120.916 531.809 118.381C527.451 118.462 516.76 119.307 508.858 122.037C509.273 120.991 510.26 119.046 511.266 118.517C506.241 119.92 496.383 123.439 493.461 127.399C494.297 125.372 496.523 121.177 498.96 119.979C495.053 121.711 487.041 126.174 483.874 131.299L478.354 139.099C478.645 136.011 479.865 129.3 482.421 127.155C479.613 129.349 473.416 135.881 471.091 144.461C470.51 147.548 468.477 154.844 464.99 159.329C460.923 165.991 452.673 179.998 452.208 182.728C453.467 175.172 455.345 157.525 452.789 147.386C449.594 134.711 445.236 123.255 438.844 114.968C432.893 107.252 426.69 104.818 424.926 104.126C424.796 104.075 424.689 104.034 424.609 104C427.708 107.819 434.138 116.577 435.068 121.062C431.969 118.056 424.377 111.702 418.799 110.337C411.827 108.631 402.24 108.875 400.206 109.119C404.273 109.931 412.756 112.043 414.151 113.993C406.888 112.693 389.341 111.117 377.256 115.212C382.873 115.212 394.803 115.943 397.592 118.868C394.88 118.624 387.83 118.478 381.323 119.843C387.714 120.168 402.647 122.183 411.246 127.643C410.181 127.155 406.191 126.375 398.754 127.155C403.305 128.374 413.512 131.738 417.927 135.443C415.894 135.199 410.723 135.247 406.307 137.392C409.987 137.392 418.625 138.611 423.738 143.486C421.22 142.592 414.209 141.39 406.307 143.73C412.117 143.892 426.294 145.972 436.52 152.992C431.582 151.692 418.16 149.482 403.983 151.042C409.503 151.773 422.692 154.844 431.291 161.279C426.352 160.792 414.5 160.06 406.598 161.035C403.402 157.542 396.604 149.921 394.977 147.386C394.699 146.953 394.372 146.415 393.999 145.8C391.64 141.919 387.422 134.976 381.904 132.03C382.873 134.549 384.751 140.366 384.519 143.486C381.516 140.317 374.641 133.298 371.155 130.568C371.833 131.868 373.479 135.394 374.641 139.099C371.736 136.417 363.66 131.153 354.596 131.543C357.598 132.68 364.647 136.417 368.831 142.267C362.44 139.099 347.507 133.883 338.908 138.367C341.716 138.611 348.727 140.122 354.305 144.217C350.238 142.998 339.024 141.195 326.707 143.73C331.064 144.217 341.29 145.875 347.333 148.604C341.135 148.117 327.171 148.897 320.896 155.917C324.576 154.536 333.621 152.114 340.361 153.479C338.036 154.129 332.343 156.697 328.159 161.766C330.483 161.523 335.306 161.328 336.003 162.498C336.7 163.668 331.064 168.51 328.159 170.785C333.388 169.079 345.009 164.691 349.657 160.792C348.011 163.554 343.847 169.761 340.361 172.491C342.878 171.841 348.902 169.615 352.853 165.91C351.691 167.779 349.541 172.101 350.238 174.441C351.691 172.735 355.351 169.127 358.372 168.347C358.752 168.249 359.158 168.147 359.583 168.039C363.381 167.076 368.657 165.739 369.702 164.204L366.797 169.81C368.347 168.104 372.608 164.935 377.256 165.91C377.062 167.616 375.222 172.004 369.412 175.903C373.189 174.766 381.846 172.491 386.262 172.491L377.256 179.803C379.386 179.234 383.996 178.097 385.39 178.097C384.325 179.316 381.962 181.802 381.032 181.997C383.454 181.591 389.283 181.217 393.234 182.972C392.362 183.947 390.329 185.994 389.167 186.384C391.588 186.547 396.72 187.067 397.882 187.847C399.044 188.627 401.659 188.497 402.821 188.334C402.433 189.715 401.194 192.77 399.335 193.94C391.781 189.634 373.421 180.486 360.406 178.341L360.114 178.293L360.111 178.292C344.084 175.651 339.7 174.928 326.707 174.928C330.483 175.172 340.07 177.025 348.204 182.484C344.621 181.509 335.771 180.193 329.031 182.728C332.614 182.566 341.465 183.118 348.204 186.628C342.588 186.303 330.425 187.213 326.707 193.453C328.74 192.559 333.969 190.723 338.618 190.528C336.196 191.665 331.471 194.623 331.936 197.353C334.26 195.728 340.767 192.673 348.204 193.453C344.912 194.753 337.746 198.376 335.422 202.471C338.908 200.359 347.333 196.573 353.143 198.328L346.752 202.471C337.068 203.04 315.435 204.909 306.371 207.833C303.078 208.89 294.401 212.513 286.035 218.558C284.195 219.777 279.411 222.507 274.995 223.677C277.61 223.677 284.408 222.945 290.683 220.02L297.946 216.852C289.327 224.408 270.812 240.007 265.699 241.957C268.895 241.713 277.203 239.617 284.873 233.182L303.756 220.02C301.335 224.083 294.576 233.767 286.906 240.007C289.133 239.276 295.796 235.669 304.628 227.089C304.628 228.633 303.698 232.549 299.979 235.864C302.401 234.726 308.056 231.379 311.309 227.089L317.701 218.07C317.894 220.508 317.178 226.796 312.762 232.451C308.346 238.106 308.017 238.545 308.404 238.057C310.05 237.407 314.04 235.084 316.829 230.989C318.863 227.902 323.685 220.849 326.707 217.339C326.125 220.264 323.801 227.869 319.153 234.889C321.477 233.508 327.52 228.844 333.098 221.239C333.098 222.376 332.401 225.626 329.612 229.526C332.382 227.817 337.813 223.979 340.573 220.482C338.126 224.387 334.746 230.386 334.55 233.182C337.649 229.689 345.648 222.019 352.853 219.289C351.465 221.152 348.54 225.594 347.471 229.048C343.148 230.781 338.877 232.557 336.584 233.67C331.064 236.351 322.93 238.545 320.315 239.032C322.058 239.357 326.358 239.861 329.612 239.276C323.414 242.363 308.23 252.925 297.074 270.475C292.91 277.056 285.105 292.899 287.197 303.623C287.681 299.155 290.044 288.95 295.622 283.88C295.234 284.774 294.983 287.488 297.074 291.193C297.752 287.455 300.328 278.859 305.209 274.375C304.918 275.024 304.511 277.543 305.209 282.418C305.887 279.412 308.23 272.668 312.181 269.743C312.665 269.906 313.75 270.426 314.214 271.206C314.989 267.794 317.41 260.043 320.896 256.338C320.315 257.394 319.618 260.676 321.477 265.356C322.252 262.106 325.428 254.437 331.936 249.757C331.742 251.301 331.936 255.655 334.26 260.725C332.807 260.969 327.985 263.26 320.315 270.475C322.833 269.094 329.031 266.136 333.679 265.356C328.062 268.525 316.132 277.007 313.343 285.587C315.28 283.637 319.618 279.688 321.477 279.493C319.153 281.849 314.156 288.511 312.762 296.311C313.536 295.255 315.377 293.143 316.539 293.143C315.377 295.336 313.401 302.453 314.796 313.373C316.248 308.092 320.199 296.019 324.382 289.974C324.382 291.924 325.312 297.042 329.031 301.917C328.643 298.099 327.985 289.584 328.45 286.074C329.515 288.674 332.284 294.605 334.841 297.53C334.357 295.255 333.446 289.876 333.679 286.562C334.744 287.618 337.165 289.876 338.327 290.461C337.843 288.837 337.223 284.904 338.618 282.174C339.683 282.58 341.929 283.929 342.394 286.074C342.975 282.58 344.021 275.008 343.556 272.668C345.59 274.131 350.238 278.616 352.562 284.855C353.143 281.281 354.073 273.692 353.143 271.937C354.208 272.425 356.862 274.131 358.953 277.056C359.341 275.106 359.999 270.767 359.534 269.012C360.697 270.312 363.079 273.107 363.311 273.887C363.408 269.743 363.66 261.213 363.892 260.238C365.829 261.781 369.993 265.356 371.155 267.306C370.962 264.463 371.213 258.093 373.77 255.363C374.641 255.444 376.791 257.167 378.418 263.406C378.883 263.406 381.323 256.744 382.485 253.413C383.26 254.469 384.867 256.776 385.1 257.556C385.584 255.444 386.494 251.073 386.262 250.488C392.265 246.101 405.203 237.277 408.922 237.082C403.305 243.501 389.748 258.239 380.451 265.844C373.576 273.074 357.21 289.389 346.752 296.799L333.098 306.305C337.456 305.655 346.81 304.111 349.367 303.136C346.655 306.467 340.186 314.007 336.003 317.517C338.521 317.111 345.357 314.689 352.562 308.254C350.141 311.179 345.822 319.954 347.914 331.654C348.979 326.373 352.504 313.909 358.082 306.305C357.21 310.367 356.571 320.1 360.987 326.535C360.406 323.692 359.825 316.98 362.149 312.886C363.118 314.835 365.461 320.295 367.088 326.535C367.513 322.759 367.862 314.773 366.375 309.708C367.453 312.309 369.287 315.984 371.446 318.248C364.57 331.816 347.391 368.995 333.679 409.163C332.451 412.583 331.009 416.697 329.421 421.35C324.449 414.282 314.156 399.511 312.762 396.976C315.318 399.576 322.161 405.166 329.088 406.726C325.776 403.638 318.514 396.732 315.958 393.807C314.267 391.866 309.206 387.358 301.722 383.765C302.401 381.913 303.349 377.574 301.722 375.039C300.754 373.577 298.469 370.311 297.074 368.946C298.527 368.719 303.175 369.814 310.147 376.014C309.469 373.739 307.01 368.653 302.594 366.508C304.628 366.834 309.857 368.507 314.505 372.602C314.408 371.058 313.633 367.581 311.309 366.021C313.052 366.834 317.062 368.995 319.153 371.14C318.96 368.702 315.783 363.291 304.628 361.146C306.08 360.171 311.251 358.904 320.315 361.634C318.863 360.09 313.924 357.149 305.79 357.734C308.501 356.515 316.016 354.37 324.382 355.54C317.798 353.184 298.585 349.544 274.414 353.834C266.958 355.134 247.861 359.879 231.128 368.458C233.064 366.102 238.333 361.049 243.91 359.684H247.106C246.525 358.709 245.479 356.466 245.944 355.296C246.719 355.622 248.907 356.223 251.464 356.028C250.108 354.809 247.803 351.982 249.43 350.422C251.561 350.503 256.693 350.373 260.179 349.203C259.405 348.878 257.855 347.789 257.855 346.034C258.533 345.791 261.399 345.596 267.442 346.765C266.958 345.791 265.583 343.646 263.956 342.866C265.215 342.866 268.313 343.304 270.638 345.059C268.604 343.515 264.421 340.038 263.956 338.478C265.989 338.884 271.509 340.233 277.319 342.378C274.995 340.428 270.521 335.895 271.219 333.36C272.187 332.954 275.17 333.214 279.353 337.503C278.869 336.203 277.9 333.36 277.9 332.385C278.288 332.954 280.283 334.432 285.163 335.797C287.197 336.366 291.555 338.478 292.717 342.378C293.241 341.351 293.766 338.719 292.15 335.777C293.293 337.193 295.992 339.284 301.141 340.672C299.011 338.397 294.75 333.214 294.75 330.679C297.462 332.954 304.686 338.04 311.89 340.184C309.179 338.56 304.163 334.725 305.79 332.385C305.887 332.06 307.126 331.605 311.309 332.385C311.309 331.247 309.566 328.241 302.594 325.316C303.563 324.747 308.114 324.488 318.572 327.997C315.861 325.56 307.765 320.636 297.074 320.441C300.56 319.548 308.927 317.809 314.505 318.004C311.987 316.867 303.872 315.079 291.555 317.029C294.363 315.648 300.909 312.886 304.628 312.886C302.594 311.342 294.692 309.522 279.353 314.592C281.871 312.317 288.068 307.474 292.717 306.305C289.521 305.979 281.561 306.597 275.286 311.667C276.179 309.642 278.096 305.625 279.117 304.557L267.442 314.592C267.635 312.236 268.546 307.085 270.638 305.33C268.797 305.898 263.665 309.132 257.855 317.517C256.305 319.385 252.219 324.098 248.268 327.997C243.329 332.872 233.161 344.328 222.122 363.584C220.96 358.546 220.728 347.107 229.094 341.647C227.158 341.728 223.226 341.549 222.994 340.184C222.703 338.478 227.061 334.091 233.742 332.385C232.871 332.141 229.501 331.556 222.994 331.166C224.834 329.378 230.431 325.706 238.1 325.316C234.517 324.829 225.899 324.146 220.088 325.316C223.284 323.529 232.929 319.759 245.944 318.979C243.813 317.842 235.834 316.054 220.96 318.004C223.962 315.892 232.522 311.277 242.748 309.717C238.003 308.986 226.131 308.352 216.602 311.667C219.12 309.392 227.584 304.598 241.296 303.623C239.165 302.73 233.278 301.479 226.77 303.623C228.223 302.08 232.987 298.944 240.424 298.749C239.94 298.099 237.519 296.847 231.709 297.042C234.421 295.174 241.238 291.193 246.816 290.218C245.266 289.893 241.121 289.438 236.938 290.218C240.618 288.268 250.592 284.27 261.051 283.88C258.727 283.555 252.8 282.954 247.687 283.149C249.914 282.174 256.461 280.224 264.827 280.224C260.567 278.762 248.5 276.568 234.323 279.493C235.776 278.437 240.134 276.13 245.944 275.35C241.586 274.537 231.244 274.228 224.737 279.493C218.229 284.758 216.99 285.749 217.183 285.587C218.248 282.093 221.657 274.18 226.77 270.475C223.284 271.693 215.382 276.081 211.664 283.88C207.945 291.68 206.241 295.418 205.853 296.311L202.658 288.511L204.11 252.682C203.432 252.682 202.077 256.435 202.077 271.45C201.205 268.931 199.578 263.406 200.043 261.456C200.62 259.036 198.047 266.467 200.284 282.317C199.665 278.053 198.076 269.745 196.266 268.037C196.944 270.231 198.3 276.227 198.3 282.662C197.138 279.899 194.581 274.18 193.652 273.4C194.717 275.918 196.906 282.077 197.138 286.562C195.782 283.962 192.199 275.447 188.713 262.188C188.204 263.397 187.918 267.462 190.197 274.741C187.956 268.421 184.368 259.356 182.031 257.069C182.903 259.019 184.704 263.845 184.936 267.55C183.096 262.594 178.545 252.243 175.059 250.488C180.191 260.4 190.863 281.492 192.49 286.562L194.233 291.193C193.845 292.817 193.303 297.822 194.233 304.842C194.136 304.436 193.536 303.331 191.909 302.161C193.264 303.786 195.802 308.303 195.104 313.373C195.087 313.498 195.071 313.618 195.055 313.733C193.574 309.943 190.139 301.986 187.841 299.48C184.936 289.893 179.126 270.085 179.126 267.55C178.545 268.931 178.429 274.472 182.612 285.587C181.257 283.555 178.429 278.811 177.964 276.081C177.964 278.646 178.807 284.755 181.89 291.445C179.887 287.76 177.495 283.7 176.511 283.149C177.19 284.774 178.777 288.658 179.707 291.193C176.511 288.755 169.481 283.637 166.925 282.662C168.087 283.149 171.515 286.074 175.93 293.874C171.863 290.299 160.998 283.295 150.075 283.88C153.464 284.368 161.405 286.903 166.053 293.143C161.079 290.013 148.074 284.267 135.438 286.006C135.423 286.044 135.408 286.083 135.393 286.121C138.214 286.478 144.07 288.037 148.041 291.924C145.353 290.766 139.702 289.068 134.2 289.28C134.037 289.719 133.875 290.159 133.714 290.599C136.092 291.001 138.802 291.769 141.069 293.143C138.741 293.143 133.863 293.809 131.671 296.376C131.601 296.581 131.532 296.785 131.462 296.99C134.415 296.449 140.922 296.103 145.427 298.749C142.535 298.264 135.843 298.889 132.114 305.242C131.148 304.743 130.189 304.246 129.256 303.761C129.109 304.23 128.964 304.7 128.819 305.17C131.071 306.729 132.998 308.036 133.667 308.422C132.36 307.708 130.617 306.796 128.625 305.809C128.315 306.825 128.011 307.843 127.713 308.863C132.763 310.93 138.733 313.288 143.625 315.22C148.348 317.085 152.066 318.553 152.98 318.979L148.622 320.198C151.43 320.767 157.628 322.586 159.952 325.316C155.111 324.585 144.381 324.244 140.197 328.729C141.94 328.404 146.473 328.29 150.656 330.435C147.363 330.516 139.384 331.654 133.806 335.553C136.905 335.066 143.858 334.237 146.879 334.822C143.587 336.203 136.595 339.307 134.968 340.672C132.89 339.8 127.42 338.188 120.802 337.996C120.766 338.197 120.729 338.398 120.692 338.599C123.907 339.519 128.165 340.994 129.448 342.378C127.294 341.976 123.936 341.525 120.212 341.324C119.374 346.207 118.659 351.13 118.067 356.091L120.733 354.078C121.024 354.565 121.43 356.028 120.733 357.978C123.735 356.596 129.855 353.298 130.32 351.153C130.417 353.428 129.971 358.952 127.415 362.852C129.836 361.228 135.084 357.588 136.711 356.028V361.877C137.776 361.228 140.314 359.537 141.94 357.978L141.359 362.365C143.684 360.253 148.797 355.833 150.656 355.053C150.656 355.143 150.706 355.3 150.777 355.526C151.094 356.525 151.84 358.879 150.656 362.852C152.399 361.228 156.873 357.88 160.824 357.49C160.824 358.709 160.185 361.829 157.628 364.559C160.049 363.015 165.24 360.122 166.634 360.902C166.731 361.471 166.576 362.999 165.182 364.559C166.731 363.99 170.178 362.657 171.573 361.877C175.349 362.04 184.355 362.804 190.166 364.559C183.387 364.884 167.099 365.485 156.176 365.29C142.595 365.047 123.267 366.975 116.771 369.634C116.77 369.646 116.769 369.658 116.768 369.67C120.411 369.431 128.982 369.3 134.968 370.652C130.561 371.073 123.133 372.045 116.516 373.501C116.468 374.32 116.423 375.14 116.381 375.96C117.453 375.921 118.444 375.932 119.281 376.014C118.528 376.257 117.488 376.629 116.325 377.099C116.269 378.294 116.22 379.491 116.179 380.69C116.849 380.701 117.421 380.761 117.828 380.889C117.347 381.074 116.781 381.305 116.149 381.576C116.12 382.492 116.095 383.409 116.075 384.327C116.535 384.194 116.931 384.102 117.247 384.058C116.942 384.523 116.521 385.173 116.043 385.924C116.026 386.959 116.013 387.995 116.006 389.032C118.088 387.391 120.395 385.719 121.895 385.033C121.024 386.251 119.92 389.859 122.476 394.539C122.379 392.101 122.825 386.593 125.381 384.058C125.769 385.276 127.763 387.811 132.644 388.201C130.901 387.389 127.415 384.789 127.415 380.889C129.158 382.758 134.503 386.398 141.94 386.008C140.197 385.358 136.711 382.937 136.711 378.452C137.776 379.996 140.604 383.278 143.393 384.058C142.619 382.108 142.347 377.867 147.46 376.502C146.686 377.314 145.601 380.499 147.46 386.739C148.235 384.139 150.423 378.842 152.98 378.452C152.883 380.239 152.864 384.253 153.561 386.008C148.138 388.77 135.491 394.831 128.286 396.976C129.642 397.138 132.935 397.415 135.259 397.22C130.637 400.321 123.165 406.517 116.924 414.391C117.378 420.109 117.997 425.782 118.775 431.406C120.577 426.446 123.485 420.076 124.51 424.031C125.478 419.806 127.822 411.357 129.448 411.357C129.158 412.575 128.926 415.744 130.32 418.669C131.482 415.256 134.62 407.847 137.873 405.507C139.035 408.594 141.301 415.159 141.069 416.719C141.747 412.981 144.323 405.117 149.203 403.557C150.365 403.882 152.573 406.189 152.108 412.819C153.561 411.438 156.466 408.042 156.466 405.507C156.854 406.969 157.861 410.187 158.79 411.357C158.693 408.919 158.79 403.947 159.952 403.557C160.824 404.613 162.625 407.018 162.857 408.188C163.051 405.751 164.019 400.73 166.344 400.145C166.925 401.282 168.377 403.557 169.539 403.557C170.314 400.551 174.42 393.905 184.646 391.37C179.32 395.757 166.925 406.677 159.952 415.256C158.887 416.8 155.943 420.716 152.689 424.031C151.602 425.139 150.224 426.229 148.738 427.405C144.667 430.626 139.789 434.486 137.873 441.093C139.52 438.899 143.451 434.463 146.008 434.268C143.296 436.624 137.757 444.018 137.292 454.742C137.873 453.118 139.558 449.575 141.65 448.405C140.682 450.517 139.152 456.351 140.778 462.786C141.263 461.729 142.463 459.568 143.393 459.374C143.005 461.892 143.567 468.733 148.913 475.948C147.944 470.748 146.298 459.374 147.46 455.474C148.429 457.424 151.353 461.616 155.304 462.786C153.368 459.942 149.494 453.67 149.494 451.33C151.237 453.605 155.42 458.155 158.209 458.155C156.466 455.88 153.096 451.086 153.561 450.111C154.53 450.68 156.815 451.818 158.209 451.818C157.144 450.274 155.188 446.943 155.885 445.968C156.621 444.939 157.563 445.647 159.062 446.772C159.339 446.98 159.635 447.202 159.952 447.43C159.371 444.831 157.744 439.143 155.885 437.193C157.919 438.006 162.974 440.411 166.925 443.53L162.857 434.268C164.407 434.512 167.796 435.438 168.958 437.193C168.474 435.325 167.389 431.441 166.925 430.856C168.184 431.343 170.818 432.513 171.282 433.293C169.636 430.368 166.46 424.177 166.925 422.812C168.668 423.381 172.735 424.811 175.059 425.981C173.509 423.381 170.875 417.743 172.735 415.988C173.606 416.069 176.105 417.206 179.126 421.106L178.545 412.575C179.514 412.981 181.566 414.087 182.031 415.256C181.353 413.55 180.114 409.943 180.579 409.163C181.16 408.188 188.713 396.489 193.652 392.345C189.391 401.12 180.404 419.741 178.545 424.031C176.221 429.393 164.987 449.136 159.662 455.23C159.952 454.891 168.087 449.38 170.411 449.38C170.023 451.818 168.435 458.009 165.182 463.273C166.537 462.948 170.411 460.349 175.059 452.549C174.284 455.392 173.897 463.225 178.545 471.804C177.964 467.255 177.151 456.4 178.545 449.38C178.836 452.63 180.985 460.3 187.26 464.98C186.098 463.192 183.774 458.496 183.774 454.011C185.517 455.717 189.585 460.056 191.909 463.761C191.438 461.23 189.517 454.99 185.557 449.804C187.778 452.587 192.654 457.424 196.847 457.424C195.007 455.961 190.514 451.72 187.26 446.455C188.81 448.161 192.896 451.769 196.847 452.549C194.62 450.68 189.933 446.163 189.004 443.043C190.747 443.856 195.395 446.748 200.043 451.818C199.462 449.38 196.847 443.14 191.037 437.681C192.49 438.33 195.86 440.167 197.719 442.312C197.138 440.28 195.627 435.926 194.233 434.756C195.879 435.731 199.694 438.266 201.786 440.605C199.462 435.812 194.93 425.981 195.395 425.006C196.75 425.981 199.694 428.224 200.624 429.393C200.431 427.769 199.578 423.836 197.719 421.106C198.3 421.106 199.694 421.448 200.624 422.812C200.624 421.594 199.869 417.304 196.847 409.894C198.397 411.275 201.728 414.233 202.658 415.013C201.399 412.657 198.765 406.238 198.3 399.413C199.725 401.246 202.547 405.111 202.655 406.179C202.369 400.794 202.67 389.706 206.144 387.958C204.013 396.163 200.798 417.596 204.982 437.681C206.628 444.911 211.664 461.665 218.636 470.829C217.086 468.311 214.336 461.128 215.731 452.549C215.924 455.717 217.88 462.932 224.156 466.442C222.412 464.33 219.043 458.447 219.507 451.818C220.379 455.392 224.388 463.176 233.452 465.711C231.902 464.411 228.339 461.031 226.48 457.911C227.835 459.048 231.302 461.275 234.323 461.08C231.806 459.455 226.247 454.938 224.156 449.868C226.673 451.899 232.755 456.156 236.938 456.936C233.259 454.417 226.015 448.503 226.48 444.993C229.094 447.43 236.415 451.72 244.782 449.38C240.618 448.568 231.128 444.749 226.48 435.974C228.223 436.38 232.232 436.949 234.323 435.974C231.902 434.918 226.48 431.636 224.156 426.956C225.124 427.362 227.351 428.175 228.513 428.175C227.061 426.712 223.865 423.3 222.703 421.35C224.349 422.163 227.99 423.787 229.385 423.787C226.77 421.431 221.25 415.89 220.088 412.575C221.25 413.307 224.156 414.818 226.48 415.013C224.446 413.632 219.856 409.309 217.764 403.069C218.248 403.801 220.088 405.312 223.575 405.507C221.638 403.719 217.299 398.146 215.44 390.151C216.215 390.124 217.939 389.81 218.636 388.77C219.507 389.23 221.541 391.126 222.703 395.026C222.981 393.443 223.367 390.104 222.785 388.914C228.915 399.661 241.301 421.359 242.458 423.3C243.91 425.737 282.258 498.372 286.035 535.421C284.97 532.821 281.677 526.841 277.029 523.721C277.9 525.671 279.876 530.204 280.806 532.739C279.16 531.602 275.053 529.035 271.8 527.865C274.802 530.627 281.328 536.834 283.42 539.564C281.968 538.508 278.714 536.298 277.319 535.908C280.515 539.564 286.964 547.12 287.197 548.095C285.841 547.364 282.897 545.853 281.968 545.658C274.608 540.864 256.228 531.569 241.586 532.739C243.62 533.958 248.268 537.663 250.592 542.733H247.687C247.397 544.52 248.965 549.509 257.565 555.164L260.47 558.088H258.727L263.375 561.988C263.859 564.426 265.525 569.642 268.313 571.007C263.375 568.975 250.999 566.376 241.005 572.225C240.29 572.699 239.208 573.513 238.016 574.57C261.212 576.69 293.102 577.811 324.109 574.174L362.415 569.885ZM222.785 388.914C222.768 388.879 222.75 388.846 222.732 388.816C222.722 388.8 222.713 388.785 222.703 388.77C222.73 388.818 222.758 388.865 222.785 388.914ZM185.227 449.38C185.338 449.521 185.448 449.662 185.557 449.804C185.439 449.657 185.329 449.515 185.227 449.38ZM132.172 305.272L132.128 305.249L132.114 305.242L132.063 305.33C132.09 305.315 132.118 305.3 132.146 305.285L132.172 305.272ZM132.172 305.272C136.341 307.426 140.644 309.63 143.684 311.179L134.968 304.842L146.298 308.986L149.203 307.523C147.344 306.158 143.781 306.305 142.231 306.548C144.323 304.793 148.332 304.68 150.075 304.842C144.78 300.4 136.008 303.243 132.172 305.272ZM184.065 295.58C183.239 294.195 182.518 292.808 181.89 291.445C182.726 292.983 183.494 294.455 184.065 295.58ZM195.104 313.861C194.821 315.763 194.427 318.314 195.055 313.733L195.104 313.861ZM191.328 278.031C190.895 276.869 190.52 275.772 190.197 274.741C190.63 275.963 191.014 277.083 191.328 278.031ZM200.284 282.317L200.29 282.356C200.304 282.457 200.319 282.559 200.333 282.662C200.318 282.55 200.302 282.435 200.284 282.317ZM291.555 334.822C291.779 335.143 291.977 335.462 292.15 335.777C291.849 335.403 291.656 335.077 291.555 334.822ZM287.799 378.452C292.382 380.039 296.846 381.721 299.689 382.839C300.385 383.139 301.063 383.448 301.722 383.765C297.074 374.951 290.503 372.163 287.799 371.871C288.978 374.796 288.29 377.477 287.799 378.452ZM287.799 378.452C284.562 373.653 279.464 372.065 277.319 371.871C278.714 373.821 278.675 374.796 278.481 375.039C275.228 371.919 272.865 371.627 272.09 371.871C272.323 373.626 273.155 374.227 273.543 374.308C276.814 374.836 282.389 376.578 287.799 378.452ZM365.635 307.767C365.922 308.343 366.166 308.997 366.375 309.708C366.061 308.949 365.81 308.281 365.635 307.767ZM348.483 228.643C348.146 228.777 347.808 228.912 347.471 229.048C347.421 229.209 347.375 229.369 347.333 229.526C347.671 229.273 348.059 228.976 348.483 228.643ZM348.483 228.643C352.146 227.182 355.737 225.789 358.082 224.895V219.289C356.251 222.191 351.466 226.301 348.483 228.643ZM341.813 218.558C341.519 219.176 341.093 219.823 340.573 220.482C341.028 219.757 341.449 219.104 341.813 218.558ZM473.829 184.434L465.862 186.628L454.242 203.446C461.379 196.224 467.902 189.92 473.829 184.434ZM514.829 275.35C516.12 265.6 514.292 262.513 513.216 262.188L510.311 270.231C511.988 271.99 513.489 273.698 514.829 275.35ZM299.398 528.84C305.296 496.016 319.647 450.068 329.088 422.325C324.95 419.985 319.773 414.525 317.701 412.088L307.533 397.951C308.927 405.946 312.762 414.119 314.505 417.206C309.624 413.112 305.887 406.076 304.628 403.069C303.698 406.384 305.015 409.976 305.79 411.357C299.747 406.482 297.462 397.626 297.074 393.807C294.983 400.242 296.977 407.863 298.236 410.869C292.891 404.434 290.392 394.864 289.811 390.882C289.114 394.587 290.102 402.663 290.683 406.238C287.197 402.923 285.163 395.672 284.582 392.46C283.653 393.722 284.195 397.947 284.582 399.901C280.793 395.566 279.381 392.602 278.842 390.822C278.735 390.117 278.616 389.427 278.481 388.77C278.514 388.935 278.472 389.599 278.842 390.822C279.473 394.998 279.644 399.742 279.644 401.851C276.39 393.856 271.509 388.933 269.476 387.47C270.638 391.175 270.717 395.351 270.611 396.976C267.8 393.661 265.778 388.445 265.118 386.251C263.026 387.692 263.084 390.991 263.375 392.46C259.889 388.847 258.824 386.491 258.727 385.764C256.484 387.645 256.313 388.455 256.566 388.7C254.429 387.463 249.782 382.52 247.687 380.158V384.45C240.482 379.304 233.646 378.307 231.128 378.452C236.932 380.093 242.51 382.177 247.687 384.45C250.81 385.82 253.786 387.26 256.578 388.71C256.611 388.739 256.651 388.758 256.693 388.77C259.062 390.004 261.297 391.245 263.375 392.46C266.068 394.035 268.497 395.565 270.611 396.976C273.463 398.88 275.741 400.566 277.319 401.851C292.891 413.745 296.009 424.356 295.622 428.175C291.206 420.18 286.422 416.069 284.582 415.013C291.09 425.542 286.713 435.487 283.711 439.143C285.105 432.513 284.292 430.043 283.711 429.637C281.154 440.557 274.511 447.349 271.509 449.38C274.298 443.725 274.802 438.899 274.705 437.193C272.381 441.678 269.863 444.262 268.895 444.993C273.078 433.488 272.381 427.362 271.509 425.737C270.812 429.637 268.895 431.75 268.023 432.318C268.953 426.859 267.635 421.106 266.861 418.913C265.699 422.032 263.084 423.462 261.922 423.787C264.246 417.353 262.891 413.632 261.922 412.575C261.457 417.84 258.243 420.619 256.693 421.35C260.411 409.845 259.017 403.069 257.855 401.12C255.996 412.039 251.464 417.856 249.43 419.4C251.987 407.701 250.495 402.338 249.43 401.12C248.5 404.629 245.363 410.219 243.91 412.575L260.179 440.605C268.313 453.475 289.714 504.791 299.398 528.84ZM488.232 218.802L498.98 220.508L514.378 220.995C510.892 219.858 500.782 217.827 488.232 218.802ZM494.332 254.875L495.494 245.857C494.139 247.319 491.253 250.342 490.556 250.732C491.815 248.376 494.042 243.273 492.88 241.713C491.04 242.688 487.07 245.516 485.907 249.026L494.332 254.875ZM483.874 248.051V238.545L480.097 245.369L483.874 248.051ZM474.577 242.688L472.544 238.057L470.801 240.738L474.577 242.688ZM467.024 238.545L461.795 236.351L464.99 234.401L467.024 238.545ZM486.489 202.471C484.552 202.146 479.923 201.886 476.902 203.446L479.226 204.909L486.489 202.471ZM408.631 163.229C409.503 163.229 424.028 164.691 431.872 169.81C428.58 169.485 420.31 169.03 413.57 169.81L408.631 163.229ZM429.258 177.366C427.708 175.66 422.692 172.101 415.022 171.516L418.509 177.366H429.258ZM420.542 180.291L425.771 189.309C428.967 188.416 432.686 185.458 421.995 180.778L420.542 180.291ZM362.149 223.92L365.635 220.752L366.216 223.189L362.149 223.92ZM375.803 221.239L380.742 218.07L379.58 221.239H375.803ZM335.712 260.238L349.076 256.338C349.367 249.757 347.101 241.08 335.712 259.019V260.238ZM401.949 263.406L405.436 257.556L404.273 254.388C403.789 255.525 402.647 258.921 401.949 263.406ZM397.011 270.475L399.044 268.037L397.011 265.844V270.475ZM154.723 310.936C157.822 312.56 164.949 316.493 168.668 319.223L166.634 314.592L170.992 317.029C169.927 314.51 165.182 309.766 154.723 310.936ZM149.784 311.667L157.338 315.81L151.818 310.936L149.784 311.667ZM157.047 347.497C158.887 346.359 162.741 343.597 163.438 341.647L162.276 346.765C163.729 345.059 167.041 341.647 168.668 341.647C168.861 343.028 168.551 346.619 165.763 349.934C162.857 349.365 157.047 348.082 157.047 347.497ZM167.506 350.422C167.796 349.934 170.701 346.522 175.349 344.816C174.09 346.522 171.573 350.178 171.573 351.153L175.349 348.959L173.897 351.884C176.027 351.397 180.521 350.568 181.45 351.153C182.38 351.738 180.288 353.346 179.126 354.078C181.45 353.753 186.447 353.2 187.841 353.59L187.551 356.759L167.506 350.422ZM155.304 385.033C155.401 383.57 156.234 380.012 158.79 377.477V383.327L162.857 379.183V382.352C164.213 380.889 167.448 377.867 169.539 377.477L168.668 380.889L155.304 385.033ZM172.154 379.183L177.383 376.014V379.183H172.154ZM183.774 375.039V378.452H179.126L183.774 375.039ZM186.098 378.452C185.905 377.72 185.982 375.819 187.841 374.064C188.81 373.902 191.037 374.552 192.199 378.452H186.098ZM193.652 378.452C193.652 377.964 193.826 376.697 194.523 375.527C195.782 375.689 198.532 376.745 199.462 379.67L193.652 378.452Z" fill="#083658"/>
<defs>
<linearGradient id="paint0_linear_7_208" x1="399" y1="268" x2="399" y2="749" gradientUnits="userSpaceOnUse">
<stop stop-color="#0653B8"/>
<stop offset="0.395833" stop-color="#0653B8" stop-opacity="0"/>
</linearGradient>
<linearGradient id="paint1_linear_7_208" x1="337" y1="154" x2="337" y2="241" gradientUnits="userSpaceOnUse">
<stop offset="0.625" stop-color="#D9D9D9"/>
<stop offset="1" stop-color="#D9D9D9" stop-opacity="0"/>
</linearGradient>
<linearGradient id="paint2_linear_7_208" x1="523" y1="174" x2="523" y2="261" gradientUnits="userSpaceOnUse">
<stop offset="0.432292" stop-color="#D9D9D9"/>
<stop offset="1" stop-color="#D9D9D9" stop-opacity="0"/>
</linearGradient>
</defs>
</svg>
